<svg xmlns="http://www.w3.org/2000/svg" viewBox="0 0 512 512" role="img" aria-label="Achievement Night icon">
  <rect width="512" height="512" rx="72" fill="#171411"/>
  <path d="M96 108h320l-28 262-132 64-132-64L96 108Z" fill="#2b241f" stroke="#d8a747" stroke-width="18"/>
  <path d="M166 170h72v72h-72zM274 170h72v72h-72zM166 278h72v72h-72zM274 278h72v72h-72z" fill="#d4bd8c"/>
  <path d="M256 90l28 62h-56l28-62Z" fill="#e56a2e"/>
  <path d="M256 222l38 54-38 54-38-54 38-54Z" fill="#d8a747"/>
  <path d="M126 392c42 34 84 51 130 51s88-17 130-51" fill="none" stroke="#e56a2e" stroke-width="18" stroke-linecap="round"/>
</svg>
